<?xml version="1.0" encoding="UTF-8"?>
<svg id="_레이어_2" data-name="레이어 2" xmlns="http://www.w3.org/2000/svg" viewBox="0 0 137.08 137.08">
  <defs>
    <style>
      .cls-1 {
        fill: #fff;
      }

      .cls-1, .cls-2 {
        stroke-width: 2.17px;
      }

      .cls-1, .cls-2, .cls-3 {
        stroke: #231815;
        stroke-miterlimit: 10;
      }

      .cls-2 {
        fill: #1d2088;
      }

      .cls-3 {
        fill: #efefef;
        stroke-width: 3.08px;
      }
    </style>
  </defs>
  <g id="_레이어_1-2" data-name="레이어 1">
    <circle class="cls-3" cx="68.54" cy="68.54" r="67"/>
    <g>
      <path class="cls-2" d="M79.98,53.09l-18.74-16.37c-.35-.31-.74-.53-1.15-.71-3.18-2.34-7.1-3.73-11.35-3.73-10.62,0-19.22,8.61-19.22,19.22,0,6.11,2.86,11.54,7.31,15.06l17.81,15.55c1.91,1.67,4.8,1.47,6.47-.44l19.32-22.12c1.67-1.91,1.47-4.8-.44-6.47Z"/>
      <path class="cls-1" d="M57.1,83.99l18.74,16.37c.35,.31,.74,.53,1.15,.71,3.18,2.34,7.1,3.73,11.35,3.73,10.62,0,19.22-8.61,19.22-19.22,0-6.11-2.86-11.54-7.31-15.06l-17.81-15.55c-1.91-1.67-4.8-1.47-6.47,.44l-19.32,22.12c-1.67,1.91-1.47,4.8,.44,6.47Z"/>
    </g>
  </g>
</svg>